PathFileType	4	(X/Y/Z)	E:\Marcel_BSc\Ayumi_22_01_2025\22-01-2025\sumo_dl_1.trc
DataRate	CameraRate	NumFrames	NumMarkers	Units	OrigDataRate	OrigDataStartFrame	OrigNumFrames
200.0	200.0	5	47	mm	200.0	274	2190	
Frame#	Time	FHD			LBHD			RBHD			RBAR			LBAR			RSACR			LSACR			USACR			C7			CLAV			T10			RSHO			LSHO			LTHI1			LTHI3			LTHI2			LTIB1			LTIB2			LTIB3			LMMAL			LLMAL			LHEE			LMT1			LMT5			LMT3			RTHI1			RTHI2			RTHI3			RTIB1			RTIB3			RTIB2			RLMAL			RMMAL			RHEE			RMT5			RMT1			RMT3			LDUPA			LMUPA			LUUPA			LRAD			RUL			RRAD			RUFIN			RMUPA			RDUPA			RUUPA			
		X1	Y1	Z1	X2	Y2	Z2	X3	Y3	Z3	X4	Y4	Z4	X5	Y5	Z5	X6	Y6	Z6	X7	Y7	Z7	X8	Y8	Z8	X9	Y9	Z9	X10	Y10	Z10	X11	Y11	Z11	X12	Y12	Z12	X13	Y13	Z13	X14	Y14	Z14	X15	Y15	Z15	X16	Y16	Z16	X17	Y17	Z17	X18	Y18	Z18	X19	Y19	Z19	X20	Y20	Z20	X21	Y21	Z21	X22	Y22	Z22	X23	Y23	Z23	X24	Y24	Z24	X25	Y25	Z25	X26	Y26	Z26	X27	Y27	Z27	X28	Y28	Z28	X29	Y29	Z29	X30	Y30	Z30	X31	Y31	Z31	X32	Y32	Z32	X33	Y33	Z33	X34	Y34	Z34	X35	Y35	Z35	X36	Y36	Z36	X37	Y37	Z37	X38	Y38	Z38	X39	Y39	Z39	X40	Y40	Z40	X41	Y41	Z41	X42	Y42	Z42	X43	Y43	Z43	X44	Y44	Z44	X45	Y45	Z45	X46	Y46	Z46	X47	Y47	Z47	
274	1.36	152.98859	1535.0178	-990.89197	169.73512	1518.0221	-930.81732	190.8801	1502.723	-1061.5615	234.64108	236.44719	-2091.9041	251.60083	249.9875	128.85486	365.99188	871.41962	-1029.8987	366.13962	871.68646	-956.37439	361.51407	883.69598	-993.56207	337.72043	1316.9803	-986.44019	197.71542	1256.6163	-996.37994	359.97134	1039.58	-990.65063	274.85126	1330.0352	-1127.2361	266.88553	1321.5129	-850.22778	313.3873	574.58545	-747.31152	325.66132	510.30231	-740.99841	283.03299	522.79803	-717.51257	319.77533	242.39882	-594.99738	356.9245	223.13837	-623.92297	331.76794	179.5363	-582.44409	271.36334	65.843636	-592.16046	329.84534	72.684204	-547.58423	334.85095	29.989908	-595.15234	185.722	44.416443	-468.78131	253.05399	27.838072	-423.75473	206.39058	40.949356	-441.06421	314.25208	575.90759	-1235.8751	283.35391	526.25378	-1267.2747	326.43881	511.70926	-1243.5464	324.71982	275.85886	-1370.7887	337.06387	211.58621	-1381.9631	361.97726	257.76657	-1341.2301	336.06125	72.242332	-1427.3799	264.20419	68.02607	-1396.7422	339.91864	28.449383	-1381.172	253.86238	26.170889	-1552.9955	195.76653	35.692177	-1518.3792	217.64197	33.251518	-1540.6093	352.84579	1246.6311	-667.17438	324.80414	1287.7759	-668.81726	332.71606	1291.8469	-730.11096	295.36917	1288.4735	-336.36307	328.90765	1296.5945	-1628.4205	271.12244	1320.2388	-1627.7227	271.01465	1325.2996	-1700.624	346.04382	1287.7601	-1233.1434	348.99731	1280.0476	-1294.6666	361.20221	1241.125	-1226.9071
275	1.365	152.9856	1534.9995	-990.8645	169.73186	1517.9958	-930.79797	190.83891	1502.7375	-1061.5343	234.65729	236.4281	-2091.9131	251.58456	249.97298	128.85168	365.99347	871.39716	-1029.9015	366.12637	871.68109	-956.38232	361.47742	883.71069	-993.56763	337.66873	1317.0135	-986.43317	197.67931	1256.6282	-996.36755	359.9585	1039.5912	-990.64929	274.82898	1330.0103	-1127.2432	266.87387	1321.5249	-850.21924	313.35138	574.59808	-747.32275	325.6712	510.34576	-740.94128	283.01285	522.80298	-717.51172	319.81454	242.47069	-594.99646	356.9451	223.13977	-623.91492	331.75171	179.57753	-582.41498	271.36746	65.831543	-592.2005	329.83371	72.685684	-547.58521	334.84692	29.987686	-595.15582	185.72536	44.428913	-468.76868	253.05838	27.864946	-423.75064	206.38571	40.953827	-441.06555	314.14822	576.0166	-1235.8396	283.31061	526.26862	-1267.2839	326.4263	511.72925	-1243.5266	324.66101	275.82587	-1370.8555	337.03302	211.55939	-1381.9907	361.9646	257.75763	-1341.2535	336.05518	72.252213	-1427.3707	264.22299	68.025063	-1396.7395	339.91425	28.435503	-1381.1654	253.86584	26.176771	-1552.9945	195.77002	35.688759	-1518.3777	217.65547	33.243416	-1540.6051	352.84506	1246.6542	-667.18622	324.81973	1287.7844	-668.82605	332.69348	1291.8781	-730.10834	295.39709	1288.4727	-336.34943	328.89236	1296.6143	-1628.4395	271.13812	1320.2803	-1627.7239	271.03806	1325.3517	-1700.6062	346.02496	1287.7737	-1233.1299	348.95584	1280.0729	-1294.6542	361.15985	1241.1272	-1226.8981
276	1.37	152.96486	1535.0013	-990.83539	169.71844	1518.005	-930.74805	190.80618	1502.7256	-1061.5234	234.63812	236.43591	-2091.9121	251.58813	249.98198	128.85814	365.97791	871.39148	-1029.9059	366.10272	871.67688	-956.3891	361.39511	883.79602	-993.52814	337.66141	1317.0048	-986.43665	197.65334	1256.6411	-996.36469	359.94217	1039.5861	-990.65161	274.79755	1330.0208	-1127.23	266.83456	1321.5258	-850.19464	313.31909	574.59308	-747.30811	325.64865	510.3414	-740.95276	282.96494	522.81641	-717.49786	319.79913	242.45848	-594.98425	356.91046	223.13907	-623.90436	331.7533	179.57283	-582.4447	271.35983	65.840469	-592.18054	329.82877	72.689621	-547.58752	334.86566	29.990189	-595.13696	185.72404	44.424885	-468.78137	253.05775	27.881138	-423.74234	206.38031	40.968193	-441.06848	314.15829	575.94739	-1235.8771	283.25546	526.28223	-1267.2902	326.41028	511.68774	-1243.576	324.66412	275.83298	-1370.8424	337.00311	211.57932	-1381.9937	361.95102	257.77777	-1341.2654	336.06531	72.228516	-1427.3658	264.21298	68.02224	-1396.7405	339.91885	28.439365	-1381.1716	253.86163	26.175314	-1552.9995	195.7661	35.702	-1518.3837	217.61826	33.250366	-1540.6144	352.83472	1246.6558	-667.20465	324.79697	1287.8069	-668.82416	332.94644	1292.1713	-729.93555	295.40845	1288.4663	-336.35516	328.88638	1296.6707	-1628.4161	271.13208	1320.3435	-1627.712	271.06046	1325.3916	-1700.6156	345.68521	1287.8932	-1233.1978	348.93295	1280.0865	-1294.6365	361.14145	1241.1038	-1226.9009
277	1.375	152.97597	1534.9154	-990.86127	169.68022	1517.9945	-930.73877	190.76752	1502.7344	-1061.509	234.63718	236.44696	-2091.9109	251.56828	249.97874	128.85712	365.96997	871.3786	-1029.9114	366.08823	871.67407	-956.39545	361.3978	883.76685	-993.52814	337.63187	1317.0342	-986.42352	197.62491	1256.6356	-996.36121	359.94363	1039.5902	-990.6402	274.76974	1330.0024	-1127.2318	266.79245	1321.5304	-850.20465	313.30084	574.61377	-747.30634	325.64426	510.34189	-740.92505	282.96927	522.80682	-717.4975	319.78262	242.48407	-594.99719	356.94308	223.14934	-623.88336	331.77164	179.56328	-582.43146	271.37802	65.842903	-592.17725	329.82959	72.672653	-547.60419	334.84891	29.987753	-595.15033	185.71405	44.417824	-468.77594	253.00279	27.791708	-423.75662	206.38808	40.968525	-441.06616	314.1337	575.96179	-1235.8749	283.23114	526.27802	-1267.3083	326.36819	511.7435	-1243.5435	324.65723	275.8837	-1370.8508	336.97461	211.59744	-1381.9908	361.9512	257.77689	-1341.2574	336.06476	72.237411	-1427.3486	264.20441	68.019913	-1396.7338	339.91843	28.439211	-1381.1722	253.8596	26.175312	-1552.9966	195.75945	35.703938	-1518.3782	217.64128	33.26519	-1540.6136	352.82785	1246.671	-667.20337	324.77344	1287.8157	-668.82428	332.66724	1291.8761	-730.12567	295.44955	1288.4209	-336.35089	328.88248	1296.7379	-1628.4011	271.08081	1320.4438	-1627.7019	271.06085	1325.4525	-1700.5929	345.98572	1287.7557	-1233.1288	348.901	1280.1034	-1294.6235	361.10529	1241.0961	-1226.8878
278	1.38	152.98378	1534.8337	-990.89362	169.67378	1518.024	-930.7077	190.74107	1502.7408	-1061.4668	234.64008	236.43689	-2091.9058	251.58089	249.98225	128.85307	365.95895	871.37866	-1029.91	366.09296	871.65875	-956.38861	361.35623	883.79492	-993.52856	337.60236	1317.0554	-986.41406	197.61574	1256.6305	-996.36896	359.90927	1039.5986	-990.64941	274.74918	1330.0043	-1127.2195	266.75537	1321.4963	-850.18518	313.3024	574.59772	-747.30792	325.61032	510.32614	-740.96307	282.85706	523.25616	-717.43463	319.79214	242.51067	-594.97906	356.91635	223.13933	-623.88788	331.68497	179.59363	-582.448	271.38156	65.826042	-592.21741	329.8324	72.685425	-547.59619	334.85684	29.986135	-595.14331	185.72333	44.405674	-468.77579	253.01564	27.782415	-423.76141	206.37508	40.967987	-441.07254	314.12943	575.93793	-1235.9146	283.22995	526.32739	-1267.3007	326.36121	511.73001	-1243.5618	324.66302	275.84702	-1370.844	336.98615	211.61668	-1381.9772	361.95157	257.7998	-1341.2482	336.09778	72.249283	-1427.3634	264.203	68.007118	-1396.743	339.90796	28.449097	-1381.1736	253.86397	26.168657	-1553.0051	195.76869	35.705883	-1518.3843	217.64836	33.269402	-1540.6122	352.82156	1246.6694	-667.21393	324.80023	1287.7927	-668.83301	332.63498	1291.8893	-730.12695	295.46384	1288.4326	-336.3414	328.88208	1296.7761	-1628.3809	271.07574	1320.4867	-1627.684	271.08398	1325.4944	-1700.5933	345.94952	1287.7732	-1233.1204	348.87848	1280.1111	-1294.6035	361.06332	1241.0944	-1226.8737
